<?xml version="1.0" standalone="yes"?>
<svg xmlns="http://www.w3.org/2000/svg" width="50" height="50">
<path style="fill:#110806; stroke:none;" d="M0 0L0 43L1 43L21 7L22 7C17.4181 21.4793 1.05449 34.8115 0 50L50 50L28 7L29 7L49 43L50 43L50 0L0 0z"/>
<path style="fill:#a44530; stroke:none;" d="M24 2L22 7L28 7L26 2L24 2M21 7L0 45C7.5969 40.0391 12.6717 25.8519 17.1505 18C19.0921 14.596 22.0545 10.9704 21 7M28 7L49 46L50 46C47.8324 34.7589 36.0249 15.1708 28 7z"/>
<path style="fill:#725623; stroke:none;" d="M23.3333 9.66667L23.6667 10.3333L23.3333 9.66667M26 10L29 13L26 10z"/>
<path style="fill:#a44530; stroke:none;" d="M22.6667 11.3333L23.3333 11.6667L22.6667 11.3333z"/>
<path style="fill:#e0961e; stroke:none;" d="M26 11L26 22L27 22L30 21L31 17L28 19L26 11z"/>
<path style="fill:#725623; stroke:none;" d="M29 11L30 12L29 11M21 12L22 13L21 12z"/>
<path style="fill:#e0961e; stroke:none;" d="M22 12L23 20L24 20L24 12L22 12z"/>
<path style="fill:#725623; stroke:none;" d="M31 12L32 13L31 12M31 14L32 15L31 14M21 15L22 16L21 15M28 15L29 16L28 15M19 16C18.4254 18.3962 18.5249 18.487 21 19L19 16M30 16L31 17L30 16M29 17L30 18L29 17M31.3333 17.6667L31.6667 18.3333L31.3333 17.6667z"/>
<path style="fill:#a44530; stroke:none;" d="M22 18L23 19L22 18M28 18L29 19L28 18z"/>
<path style="fill:#e0961e; stroke:none;" d="M19 19L21 21L21 19L19 19z"/>
<path style="fill:#725623; stroke:none;" d="M35 19L36 20L35 19M17 20L18 24L19 24L17 20M19 20L20 21L19 20z"/>
<path style="fill:#a44530; stroke:none;" d="M23.3333 20.6667L23.6667 21.3333L23.3333 20.6667z"/>
<path style="fill:#725623; stroke:none;" d="M27 20L29 23L27 20M30 20L31 21L30 20M32 20L31 24L32 24L32 20z"/>
<path style="fill:#e0961e; stroke:none;" d="M17 21L18 22L17 21z"/>
<path style="fill:#725623; stroke:none;" d="M20 21L22 23L22 21L20 21z"/>
<path style="fill:#e0961e; stroke:none;" d="M32 21L33 22L32 21z"/>
<path style="fill:#725623; stroke:none;" d="M35 21L36 22L35 21z"/>
<path style="fill:#e0961e; stroke:none;" d="M18 22L19 23L18 22z"/>
<path style="fill:#725623; stroke:none;" d="M23 22L24 23L23 22M26 22L27 23L26 22z"/>
<path style="fill:#e0961e; stroke:none;" d="M31 22L32 23L31 22z"/>
<path style="fill:#725623; stroke:none;" d="M15 23L17 26L15 23M34 23L33 26L34 23M21 24L22 25L21 24z"/>
<path style="fill:#a44530; stroke:none;" d="M29 28L29 29C31.4095 32.6996 27.7244 38.0808 23.1096 35.9136C13.5929 31.4444 25.6088 26.0761 31 27C22.0524 16.5711 11.4637 35.2789 23 38.5278C29.9396 40.4821 36.1801 29.5386 29 28z"/>
<path style="fill:#725623; stroke:none;" d="M28 24L29 25L28 24M37 25L38 26L37 25M12 29L15 26L12 29z"/>
<path style="fill:#110806; stroke:none;" d="M27 37L27 36C19.8104 33.9141 20.6956 27.5572 28 27C19.1318 23.4269 16.5538 35.826 27 37z"/>
<path style="fill:#e0961e; stroke:none;" d="M28 28L31 28L30 26L28 28z"/>
<path style="fill:#725623; stroke:none;" d="M35 26L37 30L38 30L35 26M39 26L40 27L39 26M21 28L28 30L28 29L26 30L28 28L21 28z"/>
<path style="fill:#afaaa9; stroke:none;" d="M24.6667 27.3333L25.3333 27.6667L24.6667 27.3333z"/>
<path style="fill:#725623; stroke:none;" d="M31 27L32 28L31 27M40 27L41 28L40 27z"/>
<path style="fill:#afaaa9; stroke:none;" d="M22 28L23 29L22 28M26 28L26 29L27 35L28 35L29 28L26 28z"/>
<path style="fill:#e0961e; stroke:none;" d="M12 29L13 30L12 29z"/>
<path style="fill:#afaaa9; stroke:none;" d="M21 29L21 33L22 33L21 29z"/>
<path style="fill:#110806; stroke:none;" d="M23 29L24 30L23 29M26 29L27 30L26 29M29 29L28 36L31 29L29 29z"/>
<path style="fill:#afaaa9; stroke:none;" d="M34 29L34 33L35 33L34 29z"/>
<path style="fill:#725623; stroke:none;" d="M12 30L13 31L12 30z"/>
<path style="fill:#110806; stroke:none;" d="M22 30C23.3964 34.2012 26.6037 34.2012 28 30L27 30L27 33L22 30z"/>
<path style="fill:#e0961e; stroke:none;" d="M24 30L27 32L24 30z"/>
<path style="fill:#725623; stroke:none;" d="M35 30L36 31L35 30z"/>
<path style="fill:#a44530; stroke:none;" d="M23 31L24 32L23 31z"/>
<path style="fill:#725623; stroke:none;" d="M9 33L11 35L11 36L7 36L7 37L14 36L14 37L11 39L15 39C11.6852 42.0564 9.57088 43.7448 5 43C9.35274 47.9482 15.0848 41.0925 17 37L12 35L13 32L9 33z"/>
<path style="fill:#a44530; stroke:none;" d="M24.6667 32.3333L25.3333 32.6667L24.6667 32.3333z"/>
<path style="fill:#725623; stroke:none;" d="M26 32L27 33L26 32M35 32L36 33L35 32M37 32L38 35L33 39C37.2432 39.4083 41.7471 44.2415 45 40L40 41L36 37L36 36L42 37L42 36L39 36L39 35L41 33L37 32M41 32L42 33L41 32z"/>
<path style="fill:#e0961e; stroke:none;" d="M10.6667 33.3333L11.3333 33.6667L10.6667 33.3333z"/>
<path style="fill:#725623; stroke:none;" d="M15 33L16 34L15 33M21 33L28 37L21 33M27 33L28 34L27 33M34 33L35 34L34 33z"/>
<path style="fill:#e0961e; stroke:none;" d="M38.6667 33.3333L39.3333 33.6667L38.6667 33.3333z"/>
<path style="fill:#725623; stroke:none;" d="M42 33L43 34L42 33M28 34L29 35L28 34M44 34L45 35L44 34z"/>
<path style="fill:#e0961e; stroke:none;" d="M6 41L10 39L7 43L7 44L15 39L11 40L14 37C10.1483 35.8298 7.45273 37.3507 6 41z"/>
<path style="fill:#725623; stroke:none;" d="M22 36L23 37L22 36z"/>
<path style="fill:#e0961e; stroke:none;" d="M36 36L36 37L44 41L36 36z"/>
<path style="fill:#110806; stroke:none;" d="M14 37L15 38L14 37z"/>
<path style="fill:#725623; stroke:none;" d="M20 37L16 42L20 43L18 40L22 42L23 38L20 40L20 37M29 37L30 40L27 38L28 42L32 40L29 37z"/>
<path style="fill:#110806; stroke:none;" d="M35 37L36 38L35 37z"/>
<path style="fill:#a44530; stroke:none;" d="M42 37L43 38L42 37z"/>
<path style="fill:#725623; stroke:none;" d="M6 38L7 39L6 38z"/>
<path style="fill:#110806; stroke:none;" d="M12 38L13 39L12 38z"/>
<path style="fill:#e0961e; stroke:none;" d="M15 38L16 39L15 38z"/>
<path style="fill:#110806; stroke:none;" d="M20 38L20 40L22 38L20 38M28 38L30 40L30 38L28 38z"/>
<path style="fill:#e0961e; stroke:none;" d="M34 38L32 41L32 42L35 44L36 41L44 44L44 43L34 38z"/>
<path style="fill:#110806; stroke:none;" d="M37 38L40 40L40 39L37 38z"/>
<path style="fill:#725623; stroke:none;" d="M43 38L44 39L43 38M9 39L10 40L9 39z"/>
<path style="fill:#a44530; stroke:none;" d="M11 39L12 40L11 39M41 39L42 40L41 39z"/>
<path style="fill:#725623; stroke:none;" d="M5 40L10 42L10 41L5 40z"/>
<path style="fill:#110806; stroke:none;" d="M8.66667 40.3333L9.33333 40.6667L8.66667 40.3333z"/>
<path style="fill:#e0961e; stroke:none;" d="M18 40L19 41L18 40z"/>
<path style="fill:#110806; stroke:none;" d="M19.3333 40.6667L19.6667 41.3333L19.3333 40.6667z"/>
<path style="fill:#e0961e; stroke:none;" d="M21 40L22 41L21 40z"/>
<path style="fill:#725623; stroke:none;" d="M23 40L24 41L23 40M26 40L27 41L26 40z"/>
<path style="fill:#e0961e; stroke:none;" d="M28 40L29 41L28 40z"/>
<path style="fill:#110806; stroke:none;" d="M30.3333 40.6667L30.6667 41.3333L30.3333 40.6667z"/>
<path style="fill:#a44530; stroke:none;" d="M31.6667 40.3333L32.3333 40.6667L31.6667 40.3333z"/>
<path style="fill:#725623; stroke:none;" d="M33 40L34 41L33 40z"/>
<path style="fill:#110806; stroke:none;" d="M40.6667 40.3333L41.3333 40.6667L40.6667 40.3333M7 41L8 42L7 41z"/>
<path style="fill:#e0961e; stroke:none;" d="M17 41L18 42L17 41M20 41L19 44L20 41M23 41L23 44L24 44L23 41z"/>
<path style="fill:#a44530; stroke:none;" d="M26.3333 41.6667L26.6667 42.3333L26.3333 41.6667z"/>
<path style="fill:#e0961e; stroke:none;" d="M29 41L31 44L29 41z"/>
<path style="fill:#725623; stroke:none;" d="M31 41L32 42L31 41M35.6667 41.3333L36.3333 41.6667L35.6667 41.3333z"/>
<path style="fill:#110806; stroke:none;" d="M42 41L43 42L42 41z"/>
<path style="fill:#e0961e; stroke:none;" d="M14 44L17 42L14 44z"/>
<path style="fill:#725623; stroke:none;" d="M30 42L31 43L30 42M32 42L33 43L32 42M37 42L38 43L37 42M0 43L1 44L0 43z"/>
<path style="fill:#a44530; stroke:none;" d="M6 43L7 44L6 43z"/>
<path style="fill:#725623; stroke:none;" d="M22 43L22 45L24 45L22 43z"/>
<path style="fill:#e0961e; stroke:none;" d="M26 43L27 44L26 43z"/>
<path style="fill:#725623; stroke:none;" d="M27 43L26 45L28 45L27 43z"/>
<path style="fill:#a44530; stroke:none;" d="M35 43L36 44L35 43z"/>
<path style="fill:#725623; stroke:none;" d="M38 43L39 44L38 43M44 43L39 44L39 45L44 43M14 44L14 45L17 45L14 44M19.6667 44.3333L20.3333 44.6667L19.6667 44.3333M29.6667 44.3333L30.3333 44.6667L29.6667 44.3333M33 44L33 45L36 45L33 44z"/>
</svg>
